<svg width="18" height="12" viewBox="0 0 18 12" fill="none" xmlns="http://www.w3.org/2000/svg">
<path d="M7.55371 4.25977C7.44434 3.90885 7.28027 3.60579 7.06152 3.35059C6.84733 3.09538 6.58301 2.90169 6.26855 2.76953C5.95866 2.63281 5.60775 2.56445 5.21582 2.56445C4.67806 2.56445 4.20182 2.70117 3.78711 2.97461C3.3724 3.24349 3.04655 3.63997 2.80957 4.16406C2.57259 4.68359 2.4541 5.31022 2.4541 6.04395C2.4541 6.78223 2.57031 7.41113 2.80273 7.93066C3.03971 8.4502 3.36784 8.84896 3.78711 9.12695C4.20638 9.40039 4.69629 9.53711 5.25684 9.53711C5.75814 9.53711 6.19336 9.44141 6.5625 9.25C6.9362 9.05404 7.22103 8.77832 7.41699 8.42285C7.61751 8.06283 7.72005 7.64128 7.72461 7.1582L8.12793 7.21973H5.43457V5.81836H9.44727V7.00781C9.44727 7.8418 9.26953 8.57096 8.91406 9.19531C8.56315 9.8151 8.06868 10.2936 7.43066 10.6309C6.79264 10.9681 6.06576 11.1367 5.25 11.1367C4.33854 11.1367 3.53646 10.9316 2.84375 10.5215C2.1556 10.1068 1.62012 9.5166 1.2373 8.75098C0.859049 7.98535 0.669922 7.08757 0.669922 6.05762C0.669922 5.01855 0.863607 4.11621 1.25098 3.35059C1.6429 2.5804 2.18066 1.99023 2.86426 1.58008C3.54785 1.16992 4.32259 0.964844 5.18848 0.964844C5.90853 0.964844 6.56706 1.10384 7.16406 1.38184C7.76562 1.65527 8.25781 2.04264 8.64062 2.54395C9.02799 3.04525 9.27181 3.61719 9.37207 4.25977H7.55371ZM14.2256 11.1436C13.5101 11.1436 12.8835 10.984 12.3457 10.665C11.8079 10.346 11.3932 9.89941 11.1016 9.3252C10.8099 8.74642 10.6641 8.0765 10.6641 7.31543C10.6641 6.55436 10.8099 5.88444 11.1016 5.30566C11.3932 4.72689 11.8079 4.27799 12.3457 3.95898C12.8835 3.63997 13.5101 3.48047 14.2256 3.48047C14.9411 3.48047 15.5677 3.63997 16.1055 3.95898C16.6432 4.27799 17.0557 4.72689 17.3428 5.30566C17.6299 5.88444 17.7734 6.55436 17.7734 7.31543C17.7734 8.0765 17.6299 8.74642 17.3428 9.3252C17.0557 9.89941 16.6432 10.346 16.1055 10.665C15.5677 10.984 14.9411 11.1436 14.2256 11.1436ZM14.2393 9.75586C14.6175 9.75586 14.9411 9.64876 15.21 9.43457C15.4788 9.22038 15.6794 8.92871 15.8115 8.55957C15.9437 8.19043 16.0098 7.77344 16.0098 7.30859C16.0098 6.84375 15.9437 6.42676 15.8115 6.05762C15.6794 5.68848 15.4788 5.39681 15.21 5.18262C14.9411 4.96387 14.6175 4.85449 14.2393 4.85449C13.8473 4.85449 13.5146 4.96387 13.2412 5.18262C12.9678 5.39681 12.7627 5.68848 12.626 6.05762C12.4938 6.42676 12.4255 6.84375 12.4209 7.30859C12.4255 7.77344 12.4938 8.19043 12.626 8.55957C12.7627 8.92871 12.9678 9.22038 13.2412 9.43457C13.5146 9.64876 13.8473 9.75586 14.2393 9.75586Z" fill="white"/>
</svg>
