<svg width="30" height="30" viewBox="0 0 30 30" fill="none" xmlns="http://www.w3.org/2000/svg">
<path d="M30 15C30 23.2843 23.2843 30 15 30C6.71573 30 0 23.2843 0 15C0 6.71573 6.71573 0 15 0C23.2843 0 30 6.71573 30 15Z" fill="#4558FF"/>
<path d="M13.5537 12.2598C13.4443 11.9089 13.2803 11.6058 13.0615 11.3506C12.8473 11.0954 12.583 10.9017 12.2686 10.7695C11.9587 10.6328 11.6077 10.5645 11.2158 10.5645C10.6781 10.5645 10.2018 10.7012 9.78711 10.9746C9.3724 11.2435 9.04655 11.64 8.80957 12.1641C8.57259 12.6836 8.4541 13.3102 8.4541 14.0439C8.4541 14.7822 8.57031 15.4111 8.80273 15.9307C9.03971 16.4502 9.36784 16.849 9.78711 17.127C10.2064 17.4004 10.6963 17.5371 11.2568 17.5371C11.7581 17.5371 12.1934 17.4414 12.5625 17.25C12.9362 17.054 13.221 16.7783 13.417 16.4229C13.6175 16.0628 13.7201 15.6413 13.7246 15.1582L14.1279 15.2197H11.4346V13.8184H15.4473V15.0078C15.4473 15.8418 15.2695 16.571 14.9141 17.1953C14.5632 17.8151 14.0687 18.2936 13.4307 18.6309C12.7926 18.9681 12.0658 19.1367 11.25 19.1367C10.3385 19.1367 9.53646 18.9316 8.84375 18.5215C8.1556 18.1068 7.62012 17.5166 7.2373 16.751C6.85905 15.9854 6.66992 15.0876 6.66992 14.0576C6.66992 13.0186 6.86361 12.1162 7.25098 11.3506C7.6429 10.5804 8.18066 9.99023 8.86426 9.58008C9.54785 9.16992 10.3226 8.96484 11.1885 8.96484C11.9085 8.96484 12.5671 9.10384 13.1641 9.38184C13.7656 9.65527 14.2578 10.0426 14.6406 10.5439C15.028 11.0452 15.2718 11.6172 15.3721 12.2598H13.5537Z" fill="white"/>
<path d="M20.2256 19.1436C19.5101 19.1436 18.8835 18.984 18.3457 18.665C17.8079 18.346 17.3932 17.8994 17.1016 17.3252C16.8099 16.7464 16.6641 16.0765 16.6641 15.3154C16.6641 14.5544 16.8099 13.8844 17.1016 13.3057C17.3932 12.7269 17.8079 12.278 18.3457 11.959C18.8835 11.64 19.5101 11.4805 20.2256 11.4805C20.9411 11.4805 21.5677 11.64 22.1055 11.959C22.6432 12.278 23.0557 12.7269 23.3428 13.3057C23.6299 13.8844 23.7734 14.5544 23.7734 15.3154C23.7734 16.0765 23.6299 16.7464 23.3428 17.3252C23.0557 17.8994 22.6432 18.346 22.1055 18.665C21.5677 18.984 20.9411 19.1436 20.2256 19.1436ZM20.2393 17.7559C20.6175 17.7559 20.9411 17.6488 21.21 17.4346C21.4788 17.2204 21.6794 16.9287 21.8115 16.5596C21.9437 16.1904 22.0098 15.7734 22.0098 15.3086C22.0098 14.8438 21.9437 14.4268 21.8115 14.0576C21.6794 13.6885 21.4788 13.3968 21.21 13.1826C20.9411 12.9639 20.6175 12.8545 20.2393 12.8545C19.8473 12.8545 19.5146 12.9639 19.2412 13.1826C18.9678 13.3968 18.7627 13.6885 18.626 14.0576C18.4938 14.4268 18.4255 14.8438 18.4209 15.3086C18.4255 15.7734 18.4938 16.1904 18.626 16.5596C18.7627 16.9287 18.9678 17.2204 19.2412 17.4346C19.5146 17.6488 19.8473 17.7559 20.2393 17.7559Z" fill="white"/>
</svg>
